<?xml version="1.0" encoding="UTF-8"?>
<svg id="Layer_1" xmlns="http://www.w3.org/2000/svg" xmlns:serif="http://www.serif.com/" version="1.1" viewBox="0 0 595.28 841.89">
  <!-- Generator: Adobe Illustrator 30.1.0, SVG Export Plug-In . SVG Version: 2.1.1 Build 136)  -->
  <g id="Layer_1-2">
    <g>
      <path d="M25.94,304.83c-.32-10.87-.46-22.83-.46-35.86l.06-8.81c1.56-3.47,4.1-6.35,7.63-8.66,3.57-2.33,6.96-3.49,10.17-3.49,2.69,0,4.96.69,6.83,2.1,1.87,1.39,2.94,3.66,3.26,6.75.32,3.22.46,11.12.46,23.75v24.21h18.48v-45.95c1.62-2.82,4.08-5.28,7.46-7.31,3.93-2.38,7.55-3.57,10.87-3.57,2.69,0,4.96.69,6.83,2.1,1.87,1.39,2.94,3.66,3.26,6.75.32,3.22.46,11.12.46,23.75v24.21h18.48v-52.49c0-7.55-2.12-13.31-6.37-17.24s-9.48-5.91-15.68-5.91-11.75,1.87-17.24,5.59c-3.41,2.31-6.41,4.86-9.06,7.59-.9-3.09-2.44-5.68-4.6-7.74-3.72-3.51-8.49-5.28-14.29-5.28s-11.62,1.89-17.47,5.68c-4.31,2.8-7.97,5.8-10.95,9.02l-.15-14.21-16.92.63c0,24.53.15,49.33.46,74.37h18.48,0Z"/>
      <path d="M152.25,301.57c5.74,3.41,12.44,5.13,20.12,5.13s14.1-1.68,19.63-5.04c5.53-3.36,9.75-7.99,12.65-13.89,2.9-5.91,4.35-12.46,4.35-19.72,0-11.9-3.26-21.31-9.77-28.25s-15.47-10.4-26.86-10.4c-7.57,0-14.23,1.77-20.03,5.28s-10.28,8.24-13.43,14.13c-3.15,5.91-4.73,12.32-4.73,19.25s1.58,13.79,4.73,19.65c3.15,5.84,7.61,10.49,13.35,13.89,0,0,0-.02,0-.02ZM158.24,252.58c3.72-3.68,8.43-5.51,14.13-5.51s10.01,1.81,13.28,5.44c3.26,3.62,4.9,8.81,4.9,15.53s-1.64,11.98-4.9,15.76-7.69,5.68-13.28,5.68-10.4-1.91-14.13-5.74c-3.72-3.83-5.59-9.06-5.59-15.68s1.87-11.77,5.59-15.45v-.04h0Z"/>
      <path d="M242,301.57c5.74,3.41,12.44,5.13,20.12,5.13s14.1-1.68,19.63-5.04c5.53-3.36,9.75-7.99,12.65-13.89,2.9-5.91,4.35-12.46,4.35-19.72,0-11.9-3.26-21.31-9.77-28.25s-15.47-10.4-26.86-10.4c-7.57,0-14.23,1.77-20.03,5.28s-10.28,8.24-13.43,14.13c-3.15,5.91-4.73,12.32-4.73,19.25s1.58,13.79,4.73,19.65c3.15,5.84,7.61,10.49,13.35,13.89,0,0,0-.02,0-.02ZM247.97,252.58c3.72-3.68,8.43-5.51,14.13-5.51s10.01,1.81,13.28,5.44c3.26,3.62,4.9,8.81,4.9,15.53s-1.64,11.98-4.9,15.76-7.69,5.68-13.28,5.68-10.4-1.91-14.13-5.74c-3.72-3.83-5.59-9.06-5.59-15.68s1.87-11.77,5.59-15.45v-.04h0Z"/>
      <path d="M333.69,304.83c-.21-11.6-.32-21.42-.32-29.51l.08-16.58c1.62-2.75,4.04-5.15,7.38-7.17,3.93-2.38,7.55-3.57,10.87-3.57,6.2,0,9.63,2.94,10.26,8.85.32,2.48.46,8.18.46,17.09l-.15,30.9h18.48v-52.02c0-7.76-2.12-13.64-6.37-17.61-4.25-3.99-9.48-5.97-15.68-5.97s-11.75,1.87-17.24,5.59c-3.59,2.44-6.75,5.15-9.5,8.03l-.13-12.84-17.09.32c0,24.63.15,49.48.46,74.54h18.48v-.02h0Z"/>
      <path d="M409.15,219.6c3.22,0,5.93-1.11,8.16-3.34s3.34-4.94,3.34-8.16-1.11-6.07-3.34-8.3c-2.23-2.23-4.94-3.34-8.16-3.34s-5.93,1.11-8.16,3.34c-2.23,2.23-3.34,5-3.34,8.3s1.11,5.93,3.34,8.16,4.94,3.34,8.16,3.34Z"/>
      <path d="M399.84,231.24c0,2.9.04,5.07.15,6.52.1,11.39.21,22.62.32,33.69.1,11.08.15,22.2.15,33.38h18.48l-.15-26.23-.46-48.14-18.48.78h0Z"/>
      <path d="M448.12,302.5c4.14,2.17,9.27,3.26,15.37,3.26,5.7,0,11.31-1.3,16.84-3.89,2.23-1.03,4.14-2.14,5.8-3.3l.19,6.24h16.61l-.15-17.55-.32-32.92c0-7.86-2.23-14.02-6.68-18.48s-11.43-6.68-20.96-6.68c-10.15,0-21.06,3.36-32.77,10.09l5.13,12.28c9.1-4.25,16.46-6.37,22.05-6.37s9.19,1.09,11.41,3.26c2.23,2.17,3.34,6.01,3.34,11.5v1.05c-1.58-.44-3.11-.86-4.58-1.2-4.5-1.03-9.54-1.56-15.13-1.56-4.25,0-8.53.84-12.89,2.48-4.35,1.66-8.03,4.27-11.04,7.84-3.01,3.57-4.5,8.09-4.5,13.58,0,4.25,1.01,8.16,3.03,11.73s5.09,6.45,9.25,8.62v.02h0ZM455.96,274.8c2.54-1.7,5.78-2.56,9.71-2.56,5.8,0,11.06.53,15.76,1.56,1.03.23,1.95.48,2.88.74v11.08c-1.66,1.03-4.48,2.1-8.47,3.17-3.99,1.09-7.44,1.64-10.32,1.64-4.14,0-7.4-.8-9.77-2.42-2.38-1.6-3.57-3.74-3.57-6.45s1.26-5.04,3.8-6.75h-.02Z"/>
      <path d="M559.04,268.89l28.67-38.42-20.81.46-20.45,27.35-7.65-7.4v-52.09l-18.79.46.15,43.78c0,13.66-.1,34.26-.32,61.8h18.79c.06-8.18.13-19.21.15-33.06l8.7,11.16,23.44,21.9h23.92l-35.82-35.94s.02,0,.02,0Z"/>
      <path d="M28.97,452.37c7.4,3.57,15.98,5.36,25.71,5.36s17.68-2,24.76-5.97c.71-.4,1.41-.84,2.1-1.28v19.53l.48,6.05c-4.14-3.49-9.16-5.28-15.09-5.28-3.11,0-5.97.34-8.62,1.01s-5.61,1.64-8.93,2.88c-2.69,1.03-4.92,1.79-6.68,2.25-1.77.46-3.51.69-5.28.69-2.38,0-4.29-.55-5.74-1.64s-2.17-2.88-2.17-5.36c0-.92.04-1.66.15-2.17l-16.92-3.26c-1.14,3.72-1.7,7.08-1.7,10.09,0,6.01,2.04,10.68,6.14,14.04,4.08,3.36,9.82,5.04,17.15,5.04,3.83,0,7.19-.44,10.09-1.32s6.26-2.14,10.09-3.8c2.9-1.24,5.38-2.21,7.46-2.88,2.06-.67,4.25-1.01,6.52-1.01,3.01,0,5.8.67,8.39,2.02s4.75,3.22,6.52,5.59h16.77c-.29-14.69-.44-37.44-.46-68.19,1.32-4.94,2.02-10.32,2.02-16.14,0-10.55-2.08-19.8-6.22-27.72-4.14-7.92-10.09-14.02-17.87-18.33-7.76-4.29-16.82-6.45-27.18-6.45-10.97,0-23.08,3.32-36.34,9.94l7.29,13.05c5.28-2.17,9.98-3.85,14.13-5.04s8.85-1.79,14.13-1.79c11.18,0,19.57,3.05,25.16,9.16s8.39,15.18,8.39,27.18c0,9.84-2.59,17.66-7.76,23.44-5.17,5.8-12.11,8.7-20.81,8.7-6.01,0-11.31-1.11-15.91-3.34s-8.18-5.34-10.72-9.31c-2.54-3.99-3.8-8.51-3.8-13.58,0-3.83.67-7.15,2.02-9.94,1.35-2.8,3.11-4.18,5.28-4.18,1.14,0,2.33.25,3.57.78-.92,3.22-1.41,6.2-1.41,9,0,6.01,1.89,10.78,5.68,14.36s8.66,5.36,14.67,5.36c12.84,0,19.25-7.65,19.25-22.97,0-3.01-.38-6.14-1.16-9.4s-1.85-6.14-3.17-8.62l-13.98,1.56c1.77,6.2,2.65,11.22,2.65,15.07,0,5.91-1.45,8.85-4.35,8.85-3.32,0-4.96-2.94-4.96-8.85,0-1.77.15-3.7.46-5.82.32-2.12.53-3.91.63-5.36-1.03-.82-2.84-1.87-5.44-3.11-2.59-1.24-4.81-2.17-6.68-2.8-2.8-.92-5.49-1.41-8.07-1.41-4.46,0-8.47,1.26-12.04,3.8s-6.37,5.97-8.39,10.32-3.03,9.1-3.03,14.29c0,8.18,2.02,15.47,6.05,21.9,4.04,6.41,9.75,11.41,17.15,14.99l.04.02h0Z"/>
      <path d="M121.75,400.6c3.32-1.95,5.91-3.38,7.76-4.27,1.87-.88,3.93-1.32,6.2-1.32,2.9,0,5.23,1.03,6.98,3.11,1.26,1.47,2.77,3.99,4.56,7.46l-.23.29c-3.41,4.35-6.26,7.57-8.53,9.63-2.27,2.08-4.96,3.11-8.07,3.11h-.44c-.21-2.48-.42-5.74-.63-9.77l-13.35.78c-.82,4.46-1.24,8.43-1.24,11.96,0,11.08,3.49,19.88,10.49,26.4,7,6.52,17.43,9.77,31.3,9.77,9.73,0,17.38-2.31,22.97-6.92,5.59-4.6,8.39-11.16,8.39-19.65,0-5.8-1.79-10.38-5.36-13.75s-8.26-5.04-14.06-5.04c-1.26,0-2.56.13-3.91.29l-2.02-4.6c3.7-3.8,7.27-6.83,10.68-8.98,4.18-2.65,8.83-3.95,13.89-3.95,7.25,0,12.99,2.25,17.24,6.75s6.37,10.59,6.37,18.25c0,6.94-1.74,12.34-5.19,16.23-3.47,3.89-8.2,5.68-14.21,5.36l1.56,14.44c2.06.32,4.04.46,5.91.46,9.52,0,16.98-3.24,22.36-9.71,5.38-6.47,8.07-15.39,8.07-26.78,0-8.49-1.64-15.87-4.9-22.13-2.75-5.28-6.52-9.52-11.25-12.74.42-.44.86-.84,1.22-1.3,2.69-3.43,4.04-7.5,4.04-12.28,0-7.97-3.17-14.31-9.54-19.02s-15.03-7.06-26-7.06c-6.94,0-13.24,1.41-18.94,4.18-5.7,2.8-10.19,6.79-13.52,11.96-3.32,5.17-4.96,11.08-4.96,17.7,0,.4.02.8.04,1.2-2.29-.88-5.04-1.35-8.26-1.35-4.04,0-7.69.82-10.95,2.48s-6.85,3.89-10.78,6.68l6.37,12.11-.04.02h0ZM170.17,430.55c0,3.41-1.49,6.22-4.5,8.39-3.01,2.19-6.89,3.26-11.64,3.26-6.73,0-12.19-1.47-16.37-4.44-2.25-1.58-3.99-3.55-5.23-5.86.57.02,1.11.04,1.6.04,4.67,0,8.93-1.72,12.8-5.19,2.48-2.21,4.65-4.67,6.6-7.29l2.02,3.8c1.77-.32,3.36-.46,4.81-.46,3.11,0,5.53.67,7.29,2.02s2.65,3.26,2.65,5.74h-.02ZM164.21,369.07c4.5-4.25,10.22-6.37,17.15-6.37,5.7,0,10.22,1.01,13.58,3.03s5.04,4.79,5.04,8.3c0,2.06-.5,3.85-1.47,5.36-2.96-.57-6.1-.86-9.4-.86-7.57,0-14.31,1.66-20.26,4.96-3.72,2.08-7.31,5-10.76,8.83-.42-2.12-.65-4.25-.65-6.35,0-7.04,2.25-12.67,6.75-16.92l.02.02Z"/>
      <path d="M339.28,449.66c5.07-5.38,7.61-12.63,7.61-21.73,0-17.28-10.87-25.94-32.6-25.94-2.21,0-4.52.13-6.85.29.42-1.53.84-2.86,1.26-3.87.71-1.77,1.87-3.15,3.41-4.18,1.56-1.03,3.78-1.56,6.68-1.56,2.69,0,5.23.38,7.61,1.16s5.34,2,8.85,3.66l5.13-12.11c-4.77-2.48-8.98-4.27-12.65-5.36-3.68-1.09-7.31-1.64-10.95-1.64-7.44,0-12.97,1.68-16.54,5.04-3.57,3.36-5.82,7.42-6.75,12.19-.92,4.77-1.7,11.54-2.33,20.35,6.52-.32,12.36-.46,17.55-.46,6.73,0,11.73.99,14.99,2.94s4.9,5.13,4.9,9.48c0,3.93-1.03,7.06-3.11,9.4s-4.86,3.49-8.39,3.49c-4.46,0-7.86-1.22-10.26-3.66-2.38-2.44-3.57-5.93-3.57-10.49v-2.65h-16.46v2.65c0,4.56-.99,8.05-2.94,10.49-1.98,2.44-4.71,3.66-8.24,3.66-4.46,0-8.05-1.53-10.78-4.58-2.75-3.05-4.12-7.21-4.12-12.51,0-6.31,1.6-11.41,4.81-15.3s7.36-5.82,12.42-5.82c1.87,0,3.93.21,6.2.63l2.33-13.66c-3.72-.92-7.36-1.41-10.87-1.41-6.31,0-12,1.47-17.09,4.44-5.07,2.94-9.06,7.13-11.96,12.51s-4.35,11.6-4.35,18.64c0,10.45,2.9,18.73,8.7,24.85s13.73,9.16,23.75,9.16c6.62,0,11.96-1.89,16-5.68,1.93-1.81,3.38-3.91,4.39-6.33,1.16,2.4,2.82,4.52,5,6.33,4.6,3.78,10.85,5.68,18.71,5.68,8.6,0,15.43-2.69,20.49-8.07l.02-.02h0Z"/>
      <path d="M357.61,401.99h20.85c-6.01,3.15-10.57,6.87-13.64,11.18-3.99,5.59-5.97,11.75-5.97,18.48,0,8.39,2.67,15.01,7.99,19.88,5.34,4.86,12.61,7.29,21.82,7.29,3.51,0,6.47-.25,8.85-.78,2.38-.53,5.02-1.39,7.92-2.63l-2.94-13.05c-2.9,1.03-5.59,1.56-8.07,1.56-5.38,0-9.52-1.43-12.42-4.27s-4.35-6.81-4.35-11.88c0-5.91,1.47-10.85,4.41-14.82,2.94-3.99,6.81-7.38,11.56-10.17l-.15-15.22h-35.86v14.44-.02h0Z"/>
      <path d="M452.74,448.35c.78,2.02,2.02,3.74,3.68,5.17,3.26,2.8,7.84,4.2,13.75,4.2,6.31,0,11.5-2.1,15.53-6.28,4.04-4.18,6.05-10.17,6.05-17.93,0-16.35-7.61-24.53-22.83-24.53-1.32,0-2.75.08-4.29.21l-2.21-4.48c1.85-1.18,3.8-2.38,5.95-3.66,2.94-1.77,6.01-3.17,9.16-4.27,3.15-1.09,6.5-1.64,10.01-1.64,7.65,0,13.91,2.35,18.79,7.06,4.86,4.71,7.29,10.85,7.29,18.39,0,7.04-1.64,12.44-4.9,16.23s-7.53,5.51-12.8,5.21l1.56,14.13c.92.1,2.33.15,4.18.15,9.31,0,16.71-3.13,22.2-9.4s8.24-15.03,8.24-26.32c0-8.39-1.68-15.72-5.04-22.05-2.67-5-6.26-9.12-10.78-12.36v-34.07l-17.38.92v26.13c-2.67-.42-5.46-.65-8.39-.65-7.67,0-14.55,1.41-20.66,4.18-4.52,2.06-9.58,4.92-15.24,8.58-1.83-3.59-3.76-6.28-5.8-8.03-3.47-2.94-7.95-4.44-13.43-4.44-4.25,0-7.95.76-11.1,2.25s-6.92,3.8-11.27,6.92l6.37,12.28c3.32-1.98,5.91-3.38,7.76-4.27,1.87-.88,3.93-1.32,6.22-1.32,2.69,0,4.96.65,6.83,1.93.88.63,1.77,1.53,2.61,2.67l-33.97,25.66,8.32,9.35c.06,7.59,1.49,13.24,4.33,16.98,3.26,4.29,8.62,6.45,16.08,6.45,7.88,0,12.93-3.13,15.18-9.37h0ZM432.9,437.32c-.99-2.1-1.68-5.59-2.08-10.4l20.2-14.88,4.71,8.77c1.14-.21,2.8-.32,4.96-.32,4.25,0,7.63.97,10.17,2.88,2.54,1.91,3.8,4.94,3.8,9.08,0,2.69-.61,4.83-1.87,6.43-1.24,1.6-3.01,2.42-5.28,2.42-3.32,0-5.61-1.03-6.92-3.11-1.3-2.06-1.93-4.92-1.93-8.53h-12.74c.1,3.51-.29,6.35-1.16,8.47-.88,2.12-2.67,3.17-5.36,3.17-3.11,0-5.28-1.32-6.52-3.95v-.02h0Z"/>
      <path d="M125.3,528.02c-6.41,0-11.54,1.89-15.37,5.68s-5.74,8.83-5.74,15.13v40.06h-18.16c-.21-14.69-.32-24.99-.32-30.9,0-6.52.1-16,.32-28.42l-18.94.78c.21,15.74.32,27.68.32,35.86,0,7.57-.1,20.35-.32,38.36h37.39c-.76,4.14-2.35,7.8-4.86,10.95-3.57,4.5-8.26,7.86-14.06,10.09s-12,3.34-18.62,3.34c-9.52,0-18.01-2.1-25.45-6.28-7.46-4.18-13.28-10.05-17.47-17.55s-6.28-16.02-6.28-25.54c0-5.46.4-10.49,1.2-15.05,1.18,1.43,2.77,2.77,4.79,4.04,3.99,2.48,8.37,3.72,13.12,3.72,6.73,0,12.09-2.19,16.08-6.52,3.99-4.35,5.97-10.19,5.97-17.55,0-6.62-2.25-12-6.75-16.14s-10.28-6.22-17.32-6.22-13.2,2.17-18.48,6.52-9.31,10.55-12.11,18.62S.06,568.59.06,579.56c0,12.74,2.82,24.07,8.47,34.01,5.63,9.94,13.54,17.7,23.69,23.29,10.15,5.59,21.63,8.39,34.47,8.39,9.94,0,19-1.68,27.18-5.04s14.78-8.53,19.8-15.53c4.06-5.65,6.5-12.38,7.34-20.12h4.25c10.15-.17,18.1-3.55,23.84-10.26,5.84-6.83,8.77-15.79,8.77-26.86,0-12.11-2.9-21.71-8.7-28.8-5.8-7.08-13.73-10.64-23.75-10.64l-.1.02h0ZM34.33,542.14c2.17,0,3.99.67,5.44,2.02s2.17,3.01,2.17,4.96c0,4.67-2.86,6.98-8.53,6.98-2.69,0-5.36-.8-7.99-2.4-1.01-.61-1.85-1.32-2.59-2.1.86-1.79,1.81-3.41,2.9-4.73,2.54-3.15,5.4-4.73,8.62-4.73h-.02ZM136.48,582.29c-3.01,4.5-6.89,6.71-11.64,6.6h-3.72v-37.58c0-2.48.44-4.35,1.32-5.59s2.5-1.87,4.9-1.87,4.62,1.01,6.75,3.03,3.8,4.77,5.04,8.24,1.87,7.17,1.87,11.1c0,6.22-1.49,11.56-4.5,16.08h-.02,0Z"/>
      <path d="M250.93,493.86c-6.31,0-12.17,1.16-17.55,3.49s-9.71,5.63-12.97,9.94c-3.26,4.29-4.9,9.29-4.9,14.99,0,2.71.44,5.23,1.32,7.61h-42.78c.21,16.77.32,29.72.32,38.82s-.1,22.05-.32,38.82h18.62c-.21-13.24-.32-23.61-.32-31.05s.1-17.66.32-30.9h19.57v61.94h17.38v-31.76c.42-1.66,1.22-3.09,2.48-4.27,1.77-1.66,3.83-2.48,6.22-2.48,4.35,0,7.46,1.68,9.31,5.04,1.87,3.36,2.8,8.2,2.8,14.52,0,9.73-2.25,16.88-6.75,21.44s-11.2,6.83-20.12,6.83h-28.1c-9.52,0-16.86,2.31-21.97,6.92-5.13,4.6-7.74,10.49-7.84,17.61l18.62,2.48c.1-3.32,1.45-6.01,4.04-8.07,2.59-2.08,6.2-3.11,10.87-3.11l27.33-.15c14.69-.1,25.41-4.14,32.14-12.11s10.09-18.06,10.09-30.29c0-7.97-1.22-14.65-3.66-20.03-2.44-5.38-5.7-9.4-9.77-12.02-4.1-2.65-8.62-3.95-13.58-3.95-4.67,0-8.6,1.03-11.79,3.11-.1.06-.21.15-.32.23v-11.88h.99c.15.1.27.21.4.32l.34-.32h12.4l.63-15.68h-13.47c-.32-1.24-.5-2.52-.5-3.89,0-4.46,2-7.99,5.97-10.64,3.99-2.65,8.66-3.95,14.04-3.95,10.45,0,17.99,3.17,22.6,9.54s6.92,16.96,6.92,31.76v54.82h18.62v-59.46c0-17.8-4.1-31.3-12.28-40.44-8.18-9.16-19.97-13.75-35.4-13.75l.04-.06h0Z"/>
      <path d="M401.54,530.18c.21,6.52.32,16.77.32,30.75s-.1,24.28-.32,30.9h-24.99c-.21-13.24-.32-23.65-.32-31.21s.1-17.8.32-31.05l-18.01.46c.21,6.83.32,17.8.32,32.92,0,8.93-.04,16.4-.1,22.47-.65,1.83-1.7,3.38-3.22,4.71-2.65,2.27-5.61,3.41-8.93,3.41-7.46,0-11.18-3.72-11.18-11.18v-52.8l-18.48.61v56.98c0,7.36,2,13.01,5.97,17,3.99,3.99,9.65,5.97,17,5.97s13.52-2.12,17.87-6.37c2.38-2.33,4.44-5.13,6.16-8.39l-.88,12.28h57.61c-.32-13.35-.46-26.8-.46-40.38,0-11.79.15-24.38.46-37.73l-19.11.61-.02.04h0Z"/>
      <path d="M512.25,560.01h-9.63v-16.77h17.24l.32-13.66h-67.85v32.1c-1.16.4-2.27.84-3.34,1.37-4.1,2.02-7.29,4.83-9.63,8.47-2.33,3.62-3.49,7.76-3.49,12.42,0,8.18,2.92,14.5,8.77,18.94,5.84,4.46,14.15,6.68,24.93,6.68s18.83-2.71,24.53-8.16c5.7-5.42,8.53-13.18,8.53-23.21v-4.37l4.67.04c4.14,0,7.27.8,9.4,2.4s3.17,3.91,3.17,6.92c0,3.93-1.37,6.96-4.12,9.08-2.75,2.12-7.31,3.76-13.75,4.9l2.65,12.11h2.8c9.21,0,16.5-2.35,21.9-7.06,5.38-4.71,8.07-11.06,8.07-19.02,0-7.15-2.25-12.78-6.75-16.92-4.5-4.14-10.64-6.22-18.39-6.22l-.02-.02h0ZM486.02,543.24v16.77h-17.09v-16.77h17.09ZM485.55,577.08c0,5.38-1.53,9.65-4.58,12.82-3.05,3.15-7.17,4.73-12.34,4.73-4.77,0-8.51-.95-11.27-2.88-2.75-1.91-4.12-4.52-4.12-7.84s1.05-5.74,3.17-7.61c2.12-1.87,5-2.8,8.62-2.8l20.49.15v3.43h.02,0Z"/>
      <path d="M492.99,494.18c-3.22,0-5.93,1.14-8.16,3.41s-3.34,5.07-3.34,8.39,1.11,5.93,3.34,8.16,4.94,3.34,8.16,3.34,5.93-1.11,8.16-3.34,3.34-4.94,3.34-8.16-1.11-6.12-3.34-8.39-4.94-3.41-8.16-3.41Z"/>
    </g>
  </g>
</svg>